<svg id="visual" viewBox="0 0 960 300" width="960" height="300" xmlns="http://www.w3.org/2000/svg" xmlns:xlink="http://www.w3.org/1999/xlink" version="1.1"><rect x="0" y="0" width="960" height="300" fill="#001220"></rect><path d="M0 78L22.8 73.7C45.7 69.3 91.3 60.7 137 64.3C182.7 68 228.3 84 274 98.8C319.7 113.7 365.3 127.3 411.2 128C457 128.7 503 116.3 548.8 117C594.7 117.7 640.3 131.3 686 137C731.7 142.7 777.3 140.3 823 136C868.7 131.7 914.3 125.3 937.2 122.2L960 119L960 301L937.2 301C914.3 301 868.7 301 823 301C777.3 301 731.7 301 686 301C640.3 301 594.7 301 548.8 301C503 301 457 301 411.2 301C365.3 301 319.7 301 274 301C228.3 301 182.7 301 137 301C91.3 301 45.7 301 22.8 301L0 301Z" fill="#fa7268"></path><path d="M0 174L22.8 165.7C45.7 157.3 91.3 140.7 137 137.3C182.7 134 228.3 144 274 144.8C319.7 145.7 365.3 137.3 411.2 138.5C457 139.7 503 150.3 548.8 147.8C594.7 145.3 640.3 129.7 686 118.8C731.7 108 777.3 102 823 99.7C868.7 97.3 914.3 98.7 937.2 99.3L960 100L960 301L937.2 301C914.3 301 868.7 301 823 301C777.3 301 731.7 301 686 301C640.3 301 594.7 301 548.8 301C503 301 457 301 411.2 301C365.3 301 319.7 301 274 301C228.3 301 182.7 301 137 301C91.3 301 45.7 301 22.8 301L0 301Z" fill="#ef5f67"></path><path d="M0 193L22.8 186C45.7 179 91.3 165 137 163.8C182.7 162.7 228.3 174.3 274 180.7C319.7 187 365.3 188 411.2 191.3C457 194.7 503 200.3 548.8 194.8C594.7 189.3 640.3 172.7 686 161.7C731.7 150.7 777.3 145.3 823 153.7C868.7 162 914.3 184 937.2 195L960 206L960 301L937.2 301C914.3 301 868.7 301 823 301C777.3 301 731.7 301 686 301C640.3 301 594.7 301 548.8 301C503 301 457 301 411.2 301C365.3 301 319.7 301 274 301C228.3 301 182.7 301 137 301C91.3 301 45.7 301 22.8 301L0 301Z" fill="#e34c67"></path><path d="M0 238L22.8 233.5C45.7 229 91.3 220 137 214.7C182.7 209.3 228.3 207.7 274 208.8C319.7 210 365.3 214 411.2 214.7C457 215.3 503 212.7 548.8 215.7C594.7 218.7 640.3 227.3 686 225.3C731.7 223.3 777.3 210.7 823 208.7C868.7 206.7 914.3 215.3 937.2 219.7L960 224L960 301L937.2 301C914.3 301 868.7 301 823 301C777.3 301 731.7 301 686 301C640.3 301 594.7 301 548.8 301C503 301 457 301 411.2 301C365.3 301 319.7 301 274 301C228.3 301 182.7 301 137 301C91.3 301 45.7 301 22.8 301L0 301Z" fill="#d53867"></path><path d="M0 271L22.8 270.8C45.7 270.7 91.3 270.3 137 269.5C182.7 268.7 228.3 267.3 274 265.2C319.7 263 365.3 260 411.2 253.7C457 247.3 503 237.7 548.8 239.5C594.7 241.3 640.3 254.7 686 261.5C731.7 268.3 777.3 268.7 823 267C868.7 265.3 914.3 261.7 937.2 259.8L960 258L960 301L937.2 301C914.3 301 868.7 301 823 301C777.3 301 731.7 301 686 301C640.3 301 594.7 301 548.8 301C503 301 457 301 411.2 301C365.3 301 319.7 301 274 301C228.3 301 182.7 301 137 301C91.3 301 45.7 301 22.8 301L0 301Z" fill="#c62368"></path></svg>